<?xml version="1.0" standalone="no"?>
<!DOCTYPE svg PUBLIC "-//W3C//DTD SVG 20010904//EN"
 "http://www.w3.org/TR/2001/REC-SVG-20010904/DTD/svg10.dtd">
<svg version="1.0" xmlns="http://www.w3.org/2000/svg"
 width="200.000000pt" height="200.000000pt" viewBox="0 0 200.000000 200.000000"
 preserveAspectRatio="xMidYMid meet">

<g transform="translate(0.000000,200.000000) scale(0.100000,-0.100000)"
fill="#000000" stroke="none">
<path d="M550 1874 c-58 -10 -71 -16 -105 -46 -74 -65 -70 -12 -73 -808 -2
-393 0 -740 3 -769 6 -44 14 -62 40 -88 28 -28 40 -33 81 -33 46 0 61 9 276
152 l228 151 228 -151 c215 -143 230 -152 276 -152 41 0 53 5 81 33 26 26 34
44 40 88 3 29 5 376 3 769 -3 786 0 741 -65 801 -59 55 -44 54 -533 55 -250 1
-466 0 -480 -2z m930 -144 c20 -20 20 -33 20 -750 l0 -730 -227 152 c-210 140
-232 153 -273 153 -41 0 -63 -13 -272 -153 l-228 -152 0 730 c0 717 0 730 20
750 19 19 33 20 480 20 447 0 461 -1 480 -20z"/>
</g>
</svg>
